<?xml version="1.0" encoding="utf-8"?>
<svg xmlns="http://www.w3.org/2000/svg" xmlns:xlink="http://www.w3.org/1999/xlink" width="528" height="336" viewBox="0 0 2112 1344">
<defs>
  <clipPath id="clip170">
    <rect x="0" y="0" width="2112" height="1344"/>
  </clipPath>
</defs>
<path clip-path="url(#clip170)" d="M0 1344 L2112 1344 L2112 2.13163e-14 L0 2.13163e-14  Z" fill="#ffffff" fill-rule="evenodd" fill-opacity="1"/>
<defs>
  <clipPath id="clip171">
    <rect x="422" y="0" width="1479" height="1344"/>
  </clipPath>
</defs>
<path clip-path="url(#clip170)" d="M169.135 1222.85 L2064.76 1222.85 L2064.76 47.2441 L169.135 47.2441  Z" fill="#ffffff" fill-rule="evenodd" fill-opacity="1"/>
<defs>
  <clipPath id="clip172">
    <rect x="169" y="47" width="1897" height="1177"/>
  </clipPath>
</defs>
<polyline clip-path="url(#clip172)" style="stroke:#000000; stroke-linecap:round; stroke-linejoin:round; stroke-width:2; stroke-opacity:0.1; fill:none" points="389.749,1222.85 389.749,47.2441 "/>
<polyline clip-path="url(#clip172)" style="stroke:#000000; stroke-linecap:round; stroke-linejoin:round; stroke-width:2; stroke-opacity:0.1; fill:none" points="680.627,1222.85 680.627,47.2441 "/>
<polyline clip-path="url(#clip172)" style="stroke:#000000; stroke-linecap:round; stroke-linejoin:round; stroke-width:2; stroke-opacity:0.1; fill:none" points="971.506,1222.85 971.506,47.2441 "/>
<polyline clip-path="url(#clip172)" style="stroke:#000000; stroke-linecap:round; stroke-linejoin:round; stroke-width:2; stroke-opacity:0.1; fill:none" points="1262.38,1222.85 1262.38,47.2441 "/>
<polyline clip-path="url(#clip172)" style="stroke:#000000; stroke-linecap:round; stroke-linejoin:round; stroke-width:2; stroke-opacity:0.1; fill:none" points="1553.26,1222.85 1553.26,47.2441 "/>
<polyline clip-path="url(#clip172)" style="stroke:#000000; stroke-linecap:round; stroke-linejoin:round; stroke-width:2; stroke-opacity:0.1; fill:none" points="1844.14,1222.85 1844.14,47.2441 "/>
<polyline clip-path="url(#clip172)" style="stroke:#000000; stroke-linecap:round; stroke-linejoin:round; stroke-width:2; stroke-opacity:0.1; fill:none" points="169.135,1222.85 2064.76,1222.85 "/>
<polyline clip-path="url(#clip172)" style="stroke:#000000; stroke-linecap:round; stroke-linejoin:round; stroke-width:2; stroke-opacity:0.1; fill:none" points="169.135,963.051 2064.76,963.051 "/>
<polyline clip-path="url(#clip172)" style="stroke:#000000; stroke-linecap:round; stroke-linejoin:round; stroke-width:2; stroke-opacity:0.1; fill:none" points="169.135,703.247 2064.76,703.247 "/>
<polyline clip-path="url(#clip172)" style="stroke:#000000; stroke-linecap:round; stroke-linejoin:round; stroke-width:2; stroke-opacity:0.1; fill:none" points="169.135,443.444 2064.76,443.444 "/>
<polyline clip-path="url(#clip172)" style="stroke:#000000; stroke-linecap:round; stroke-linejoin:round; stroke-width:2; stroke-opacity:0.1; fill:none" points="169.135,183.641 2064.76,183.641 "/>
<polyline clip-path="url(#clip170)" style="stroke:#000000; stroke-linecap:round; stroke-linejoin:round; stroke-width:4; stroke-opacity:1; fill:none" points="169.135,1222.85 2064.76,1222.85 "/>
<polyline clip-path="url(#clip170)" style="stroke:#000000; stroke-linecap:round; stroke-linejoin:round; stroke-width:4; stroke-opacity:1; fill:none" points="389.749,1222.85 389.749,1203.96 "/>
<polyline clip-path="url(#clip170)" style="stroke:#000000; stroke-linecap:round; stroke-linejoin:round; stroke-width:4; stroke-opacity:1; fill:none" points="680.627,1222.85 680.627,1203.96 "/>
<polyline clip-path="url(#clip170)" style="stroke:#000000; stroke-linecap:round; stroke-linejoin:round; stroke-width:4; stroke-opacity:1; fill:none" points="971.506,1222.85 971.506,1203.96 "/>
<polyline clip-path="url(#clip170)" style="stroke:#000000; stroke-linecap:round; stroke-linejoin:round; stroke-width:4; stroke-opacity:1; fill:none" points="1262.38,1222.85 1262.38,1203.96 "/>
<polyline clip-path="url(#clip170)" style="stroke:#000000; stroke-linecap:round; stroke-linejoin:round; stroke-width:4; stroke-opacity:1; fill:none" points="1553.26,1222.85 1553.26,1203.96 "/>
<polyline clip-path="url(#clip170)" style="stroke:#000000; stroke-linecap:round; stroke-linejoin:round; stroke-width:4; stroke-opacity:1; fill:none" points="1844.14,1222.85 1844.14,1203.96 "/>
<path clip-path="url(#clip170)" d="M281.567 1294.67 L289.205 1294.67 L289.205 1268.31 L280.895 1269.98 L280.895 1265.72 L289.159 1264.05 L293.835 1264.05 L293.835 1294.67 L301.474 1294.67 L301.474 1298.61 L281.567 1298.61 L281.567 1294.67 Z" fill="#000000" fill-rule="nonzero" fill-opacity="1" /><path clip-path="url(#clip170)" d="M310.918 1292.73 L315.802 1292.73 L315.802 1298.61 L310.918 1298.61 L310.918 1292.73 Z" fill="#000000" fill-rule="nonzero" fill-opacity="1" /><path clip-path="url(#clip170)" d="M326.034 1264.05 L344.39 1264.05 L344.39 1267.99 L330.316 1267.99 L330.316 1276.46 Q331.335 1276.11 332.353 1275.95 Q333.372 1275.76 334.39 1275.76 Q340.177 1275.76 343.557 1278.93 Q346.937 1282.11 346.937 1287.52 Q346.937 1293.1 343.464 1296.2 Q339.992 1299.28 333.673 1299.28 Q331.497 1299.28 329.228 1298.91 Q326.983 1298.54 324.576 1297.8 L324.576 1293.1 Q326.659 1294.23 328.881 1294.79 Q331.103 1295.35 333.58 1295.35 Q337.585 1295.35 339.923 1293.24 Q342.261 1291.13 342.261 1287.52 Q342.261 1283.91 339.923 1281.8 Q337.585 1279.7 333.58 1279.7 Q331.705 1279.7 329.83 1280.11 Q327.978 1280.53 326.034 1281.41 L326.034 1264.05 Z" fill="#000000" fill-rule="nonzero" fill-opacity="1" /><path clip-path="url(#clip170)" d="M366.149 1267.13 Q362.538 1267.13 360.71 1270.69 Q358.904 1274.24 358.904 1281.36 Q358.904 1288.47 360.71 1292.04 Q362.538 1295.58 366.149 1295.58 Q369.784 1295.58 371.589 1292.04 Q373.418 1288.47 373.418 1281.36 Q373.418 1274.24 371.589 1270.69 Q369.784 1267.13 366.149 1267.13 M366.149 1263.42 Q371.96 1263.42 375.015 1268.03 Q378.094 1272.61 378.094 1281.36 Q378.094 1290.09 375.015 1294.7 Q371.96 1299.28 366.149 1299.28 Q360.339 1299.28 357.261 1294.7 Q354.205 1290.09 354.205 1281.36 Q354.205 1272.61 357.261 1268.03 Q360.339 1263.42 366.149 1263.42 Z" fill="#000000" fill-rule="nonzero" fill-opacity="1" /><path clip-path="url(#clip170)" d="M414.482 1273.15 L403.904 1283.77 L414.482 1294.35 L411.728 1297.15 L401.103 1286.53 L390.478 1297.15 L387.746 1294.35 L398.302 1283.77 L387.746 1273.15 L390.478 1270.35 L401.103 1280.97 L411.728 1270.35 L414.482 1273.15 Z" fill="#000000" fill-rule="nonzero" fill-opacity="1" /><path clip-path="url(#clip170)" d="M426.844 1294.67 L434.482 1294.67 L434.482 1268.31 L426.172 1269.98 L426.172 1265.72 L434.436 1264.05 L439.112 1264.05 L439.112 1294.67 L446.751 1294.67 L446.751 1298.61 L426.844 1298.61 L426.844 1294.67 Z" fill="#000000" fill-rule="nonzero" fill-opacity="1" /><path clip-path="url(#clip170)" d="M466.195 1267.13 Q462.584 1267.13 460.755 1270.69 Q458.95 1274.24 458.95 1281.36 Q458.95 1288.47 460.755 1292.04 Q462.584 1295.58 466.195 1295.58 Q469.829 1295.58 471.635 1292.04 Q473.464 1288.47 473.464 1281.36 Q473.464 1274.24 471.635 1270.69 Q469.829 1267.13 466.195 1267.13 M466.195 1263.42 Q472.005 1263.42 475.061 1268.03 Q478.14 1272.61 478.14 1281.36 Q478.14 1290.09 475.061 1294.7 Q472.005 1299.28 466.195 1299.28 Q460.385 1299.28 457.306 1294.7 Q454.251 1290.09 454.251 1281.36 Q454.251 1272.61 457.306 1268.03 Q460.385 1263.42 466.195 1263.42 Z" fill="#000000" fill-rule="nonzero" fill-opacity="1" /><path clip-path="url(#clip170)" d="M490.816 1246.43 L481.224 1261.42 L490.816 1261.42 L490.816 1246.43 M489.819 1243.12 L494.596 1243.12 L494.596 1261.42 L498.602 1261.42 L498.602 1264.58 L494.596 1264.58 L494.596 1271.2 L490.816 1271.2 L490.816 1264.58 L478.14 1264.58 L478.14 1260.91 L489.819 1243.12 Z" fill="#000000" fill-rule="nonzero" fill-opacity="1" /><path clip-path="url(#clip170)" d="M576.531 1294.67 L592.85 1294.67 L592.85 1298.61 L570.906 1298.61 L570.906 1294.67 Q573.568 1291.92 578.151 1287.29 Q582.758 1282.64 583.938 1281.3 Q586.183 1278.77 587.063 1277.04 Q587.966 1275.28 587.966 1273.59 Q587.966 1270.83 586.021 1269.1 Q584.1 1267.36 580.998 1267.36 Q578.799 1267.36 576.346 1268.12 Q573.915 1268.89 571.137 1270.44 L571.137 1265.72 Q573.961 1264.58 576.415 1264 Q578.869 1263.42 580.906 1263.42 Q586.276 1263.42 589.471 1266.11 Q592.665 1268.8 592.665 1273.29 Q592.665 1275.42 591.855 1277.34 Q591.068 1279.24 588.961 1281.83 Q588.383 1282.5 585.281 1285.72 Q582.179 1288.91 576.531 1294.67 Z" fill="#000000" fill-rule="nonzero" fill-opacity="1" /><path clip-path="url(#clip170)" d="M602.665 1292.73 L607.549 1292.73 L607.549 1298.61 L602.665 1298.61 L602.665 1292.73 Z" fill="#000000" fill-rule="nonzero" fill-opacity="1" /><path clip-path="url(#clip170)" d="M627.734 1267.13 Q624.123 1267.13 622.294 1270.69 Q620.489 1274.24 620.489 1281.36 Q620.489 1288.47 622.294 1292.04 Q624.123 1295.58 627.734 1295.58 Q631.368 1295.58 633.174 1292.04 Q635.003 1288.47 635.003 1281.36 Q635.003 1274.24 633.174 1270.69 Q631.368 1267.13 627.734 1267.13 M627.734 1263.42 Q633.544 1263.42 636.6 1268.03 Q639.679 1272.61 639.679 1281.36 Q639.679 1290.09 636.6 1294.7 Q633.544 1299.28 627.734 1299.28 Q621.924 1299.28 618.845 1294.7 Q615.79 1290.09 615.79 1281.36 Q615.79 1272.61 618.845 1268.03 Q621.924 1263.42 627.734 1263.42 Z" fill="#000000" fill-rule="nonzero" fill-opacity="1" /><path clip-path="url(#clip170)" d="M657.896 1267.13 Q654.285 1267.13 652.456 1270.69 Q650.651 1274.24 650.651 1281.36 Q650.651 1288.47 652.456 1292.04 Q654.285 1295.58 657.896 1295.58 Q661.53 1295.58 663.336 1292.04 Q665.165 1288.47 665.165 1281.36 Q665.165 1274.24 663.336 1270.69 Q661.53 1267.13 657.896 1267.13 M657.896 1263.42 Q663.706 1263.42 666.762 1268.03 Q669.84 1272.61 669.84 1281.36 Q669.84 1290.09 666.762 1294.7 Q663.706 1299.28 657.896 1299.28 Q652.086 1299.28 649.007 1294.7 Q645.952 1290.09 645.952 1281.36 Q645.952 1272.61 649.007 1268.03 Q652.086 1263.42 657.896 1263.42 Z" fill="#000000" fill-rule="nonzero" fill-opacity="1" /><path clip-path="url(#clip170)" d="M706.229 1273.15 L695.65 1283.77 L706.229 1294.35 L703.475 1297.15 L692.85 1286.53 L682.225 1297.15 L679.493 1294.35 L690.049 1283.77 L679.493 1273.15 L682.225 1270.35 L692.85 1280.97 L703.475 1270.35 L706.229 1273.15 Z" fill="#000000" fill-rule="nonzero" fill-opacity="1" /><path clip-path="url(#clip170)" d="M718.59 1294.67 L726.229 1294.67 L726.229 1268.31 L717.919 1269.98 L717.919 1265.72 L726.183 1264.05 L730.859 1264.05 L730.859 1294.67 L738.497 1294.67 L738.497 1298.61 L718.59 1298.61 L718.59 1294.67 Z" fill="#000000" fill-rule="nonzero" fill-opacity="1" /><path clip-path="url(#clip170)" d="M757.942 1267.13 Q754.331 1267.13 752.502 1270.69 Q750.696 1274.24 750.696 1281.36 Q750.696 1288.47 752.502 1292.04 Q754.331 1295.58 757.942 1295.58 Q761.576 1295.58 763.382 1292.04 Q765.21 1288.47 765.21 1281.36 Q765.21 1274.24 763.382 1270.69 Q761.576 1267.13 757.942 1267.13 M757.942 1263.42 Q763.752 1263.42 766.808 1268.03 Q769.886 1272.61 769.886 1281.36 Q769.886 1290.09 766.808 1294.7 Q763.752 1299.28 757.942 1299.28 Q752.132 1299.28 749.053 1294.7 Q745.997 1290.09 745.997 1281.36 Q745.997 1272.61 749.053 1268.03 Q752.132 1263.42 757.942 1263.42 Z" fill="#000000" fill-rule="nonzero" fill-opacity="1" /><path clip-path="url(#clip170)" d="M782.563 1246.43 L772.971 1261.42 L782.563 1261.42 L782.563 1246.43 M781.566 1243.12 L786.343 1243.12 L786.343 1261.42 L790.349 1261.42 L790.349 1264.58 L786.343 1264.58 L786.343 1271.2 L782.563 1271.2 L782.563 1264.58 L769.886 1264.58 L769.886 1260.91 L781.566 1243.12 Z" fill="#000000" fill-rule="nonzero" fill-opacity="1" /><path clip-path="url(#clip170)" d="M867.409 1294.67 L883.729 1294.67 L883.729 1298.61 L861.784 1298.61 L861.784 1294.67 Q864.446 1291.92 869.03 1287.29 Q873.636 1282.64 874.817 1281.3 Q877.062 1278.77 877.942 1277.04 Q878.845 1275.28 878.845 1273.59 Q878.845 1270.83 876.9 1269.1 Q874.979 1267.36 871.877 1267.36 Q869.678 1267.36 867.224 1268.12 Q864.794 1268.89 862.016 1270.44 L862.016 1265.72 Q864.84 1264.58 867.294 1264 Q869.747 1263.42 871.784 1263.42 Q877.155 1263.42 880.349 1266.11 Q883.544 1268.8 883.544 1273.29 Q883.544 1275.42 882.733 1277.34 Q881.946 1279.24 879.84 1281.83 Q879.261 1282.5 876.159 1285.72 Q873.058 1288.91 867.409 1294.67 Z" fill="#000000" fill-rule="nonzero" fill-opacity="1" /><path clip-path="url(#clip170)" d="M893.544 1292.73 L898.428 1292.73 L898.428 1298.61 L893.544 1298.61 L893.544 1292.73 Z" fill="#000000" fill-rule="nonzero" fill-opacity="1" /><path clip-path="url(#clip170)" d="M908.659 1264.05 L927.016 1264.05 L927.016 1267.99 L912.942 1267.99 L912.942 1276.46 Q913.96 1276.11 914.979 1275.95 Q915.997 1275.76 917.016 1275.76 Q922.803 1275.76 926.182 1278.93 Q929.562 1282.11 929.562 1287.52 Q929.562 1293.1 926.09 1296.2 Q922.617 1299.28 916.298 1299.28 Q914.122 1299.28 911.854 1298.91 Q909.608 1298.54 907.201 1297.8 L907.201 1293.1 Q909.284 1294.23 911.506 1294.79 Q913.729 1295.35 916.205 1295.35 Q920.21 1295.35 922.548 1293.24 Q924.886 1291.13 924.886 1287.52 Q924.886 1283.91 922.548 1281.8 Q920.21 1279.7 916.205 1279.7 Q914.33 1279.7 912.455 1280.11 Q910.604 1280.53 908.659 1281.41 L908.659 1264.05 Z" fill="#000000" fill-rule="nonzero" fill-opacity="1" /><path clip-path="url(#clip170)" d="M948.775 1267.13 Q945.164 1267.13 943.335 1270.69 Q941.529 1274.24 941.529 1281.36 Q941.529 1288.47 943.335 1292.04 Q945.164 1295.58 948.775 1295.58 Q952.409 1295.58 954.214 1292.04 Q956.043 1288.47 956.043 1281.36 Q956.043 1274.24 954.214 1270.69 Q952.409 1267.13 948.775 1267.13 M948.775 1263.42 Q954.585 1263.42 957.64 1268.03 Q960.719 1272.61 960.719 1281.36 Q960.719 1290.09 957.64 1294.7 Q954.585 1299.28 948.775 1299.28 Q942.965 1299.28 939.886 1294.7 Q936.83 1290.09 936.83 1281.36 Q936.83 1272.61 939.886 1268.03 Q942.965 1263.42 948.775 1263.42 Z" fill="#000000" fill-rule="nonzero" fill-opacity="1" /><path clip-path="url(#clip170)" d="M997.108 1273.15 L986.529 1283.77 L997.108 1294.35 L994.353 1297.15 L983.728 1286.53 L973.103 1297.15 L970.372 1294.35 L980.927 1283.77 L970.372 1273.15 L973.103 1270.35 L983.728 1280.97 L994.353 1270.35 L997.108 1273.15 Z" fill="#000000" fill-rule="nonzero" fill-opacity="1" /><path clip-path="url(#clip170)" d="M1009.47 1294.67 L1017.11 1294.67 L1017.11 1268.31 L1008.8 1269.98 L1008.8 1265.72 L1017.06 1264.05 L1021.74 1264.05 L1021.74 1294.67 L1029.38 1294.67 L1029.38 1298.61 L1009.47 1298.61 L1009.47 1294.67 Z" fill="#000000" fill-rule="nonzero" fill-opacity="1" /><path clip-path="url(#clip170)" d="M1048.82 1267.13 Q1045.21 1267.13 1043.38 1270.69 Q1041.58 1274.24 1041.58 1281.36 Q1041.58 1288.47 1043.38 1292.04 Q1045.21 1295.58 1048.82 1295.58 Q1052.45 1295.58 1054.26 1292.04 Q1056.09 1288.47 1056.09 1281.36 Q1056.09 1274.24 1054.26 1270.69 Q1052.45 1267.13 1048.82 1267.13 M1048.82 1263.42 Q1054.63 1263.42 1057.69 1268.03 Q1060.76 1272.61 1060.76 1281.36 Q1060.76 1290.09 1057.69 1294.7 Q1054.63 1299.28 1048.82 1299.28 Q1043.01 1299.28 1039.93 1294.7 Q1036.88 1290.09 1036.88 1281.36 Q1036.88 1272.61 1039.93 1268.03 Q1043.01 1263.42 1048.82 1263.42 Z" fill="#000000" fill-rule="nonzero" fill-opacity="1" /><path clip-path="url(#clip170)" d="M1073.44 1246.43 L1063.85 1261.42 L1073.44 1261.42 L1073.44 1246.43 M1072.44 1243.12 L1077.22 1243.12 L1077.22 1261.42 L1081.23 1261.42 L1081.23 1264.58 L1077.22 1264.58 L1077.22 1271.2 L1073.44 1271.2 L1073.44 1264.58 L1060.76 1264.58 L1060.76 1260.91 L1072.44 1243.12 Z" fill="#000000" fill-rule="nonzero" fill-opacity="1" /><path clip-path="url(#clip170)" d="M1168.36 1279.98 Q1171.71 1280.69 1173.59 1282.96 Q1175.49 1285.23 1175.49 1288.56 Q1175.49 1293.68 1171.97 1296.48 Q1168.45 1299.28 1161.97 1299.28 Q1159.79 1299.28 1157.48 1298.84 Q1155.19 1298.42 1152.73 1297.57 L1152.73 1293.05 Q1154.68 1294.19 1156.99 1294.77 Q1159.31 1295.35 1161.83 1295.35 Q1166.23 1295.35 1168.52 1293.61 Q1170.83 1291.87 1170.83 1288.56 Q1170.83 1285.51 1168.68 1283.8 Q1166.55 1282.06 1162.73 1282.06 L1158.7 1282.06 L1158.7 1278.22 L1162.92 1278.22 Q1166.37 1278.22 1168.2 1276.85 Q1170.02 1275.46 1170.02 1272.87 Q1170.02 1270.21 1168.13 1268.8 Q1166.25 1267.36 1162.73 1267.36 Q1160.81 1267.36 1158.61 1267.78 Q1156.41 1268.19 1153.77 1269.07 L1153.77 1264.91 Q1156.44 1264.17 1158.75 1263.8 Q1161.09 1263.42 1163.15 1263.42 Q1168.47 1263.42 1171.57 1265.86 Q1174.68 1268.26 1174.68 1272.38 Q1174.68 1275.25 1173.03 1277.24 Q1171.39 1279.21 1168.36 1279.98 Z" fill="#000000" fill-rule="nonzero" fill-opacity="1" /><path clip-path="url(#clip170)" d="M1184.35 1292.73 L1189.24 1292.73 L1189.24 1298.61 L1184.35 1298.61 L1184.35 1292.73 Z" fill="#000000" fill-rule="nonzero" fill-opacity="1" /><path clip-path="url(#clip170)" d="M1209.42 1267.13 Q1205.81 1267.13 1203.98 1270.69 Q1202.18 1274.24 1202.18 1281.36 Q1202.18 1288.47 1203.98 1292.04 Q1205.81 1295.58 1209.42 1295.58 Q1213.06 1295.58 1214.86 1292.04 Q1216.69 1288.47 1216.69 1281.36 Q1216.69 1274.24 1214.86 1270.69 Q1213.06 1267.13 1209.42 1267.13 M1209.42 1263.42 Q1215.23 1263.42 1218.29 1268.03 Q1221.37 1272.61 1221.37 1281.36 Q1221.37 1290.09 1218.29 1294.7 Q1215.23 1299.28 1209.42 1299.28 Q1203.61 1299.28 1200.53 1294.7 Q1197.48 1290.09 1197.48 1281.36 Q1197.48 1272.61 1200.53 1268.03 Q1203.61 1263.42 1209.42 1263.42 Z" fill="#000000" fill-rule="nonzero" fill-opacity="1" /><path clip-path="url(#clip170)" d="M1239.58 1267.13 Q1235.97 1267.13 1234.14 1270.69 Q1232.34 1274.24 1232.34 1281.36 Q1232.34 1288.47 1234.14 1292.04 Q1235.97 1295.58 1239.58 1295.58 Q1243.22 1295.58 1245.02 1292.04 Q1246.85 1288.47 1246.85 1281.36 Q1246.85 1274.24 1245.02 1270.69 Q1243.22 1267.13 1239.58 1267.13 M1239.58 1263.42 Q1245.39 1263.42 1248.45 1268.03 Q1251.53 1272.61 1251.53 1281.36 Q1251.53 1290.09 1248.45 1294.7 Q1245.39 1299.28 1239.58 1299.28 Q1233.77 1299.28 1230.7 1294.7 Q1227.64 1290.09 1227.64 1281.36 Q1227.64 1272.61 1230.7 1268.03 Q1233.77 1263.42 1239.58 1263.42 Z" fill="#000000" fill-rule="nonzero" fill-opacity="1" /><path clip-path="url(#clip170)" d="M1287.92 1273.15 L1277.34 1283.77 L1287.92 1294.35 L1285.16 1297.15 L1274.54 1286.53 L1263.91 1297.15 L1261.18 1294.35 L1271.74 1283.77 L1261.18 1273.15 L1263.91 1270.35 L1274.54 1280.97 L1285.16 1270.35 L1287.92 1273.15 Z" fill="#000000" fill-rule="nonzero" fill-opacity="1" /><path clip-path="url(#clip170)" d="M1300.28 1294.67 L1307.92 1294.67 L1307.92 1268.31 L1299.61 1269.98 L1299.61 1265.72 L1307.87 1264.05 L1312.55 1264.05 L1312.55 1294.67 L1320.19 1294.67 L1320.19 1298.61 L1300.28 1298.61 L1300.28 1294.67 Z" fill="#000000" fill-rule="nonzero" fill-opacity="1" /><path clip-path="url(#clip170)" d="M1339.63 1267.13 Q1336.02 1267.13 1334.19 1270.69 Q1332.38 1274.24 1332.38 1281.36 Q1332.38 1288.47 1334.19 1292.04 Q1336.02 1295.58 1339.63 1295.58 Q1343.26 1295.58 1345.07 1292.04 Q1346.9 1288.47 1346.9 1281.36 Q1346.9 1274.24 1345.07 1270.69 Q1343.26 1267.13 1339.63 1267.13 M1339.63 1263.42 Q1345.44 1263.42 1348.5 1268.03 Q1351.57 1272.61 1351.57 1281.36 Q1351.57 1290.09 1348.5 1294.7 Q1345.44 1299.28 1339.63 1299.28 Q1333.82 1299.28 1330.74 1294.7 Q1327.69 1290.09 1327.69 1281.36 Q1327.69 1272.61 1330.74 1268.03 Q1333.82 1263.42 1339.63 1263.42 Z" fill="#000000" fill-rule="nonzero" fill-opacity="1" /><path clip-path="url(#clip170)" d="M1364.25 1246.43 L1354.66 1261.42 L1364.25 1261.42 L1364.25 1246.43 M1363.25 1243.12 L1368.03 1243.12 L1368.03 1261.42 L1372.04 1261.42 L1372.04 1264.58 L1368.03 1264.58 L1368.03 1271.2 L1364.25 1271.2 L1364.25 1264.58 L1351.57 1264.58 L1351.57 1260.91 L1363.25 1243.12 Z" fill="#000000" fill-rule="nonzero" fill-opacity="1" /><path clip-path="url(#clip170)" d="M1459.24 1279.98 Q1462.59 1280.69 1464.47 1282.96 Q1466.37 1285.23 1466.37 1288.56 Q1466.37 1293.68 1462.85 1296.48 Q1459.33 1299.28 1452.85 1299.28 Q1450.67 1299.28 1448.36 1298.84 Q1446.06 1298.42 1443.61 1297.57 L1443.61 1293.05 Q1445.56 1294.19 1447.87 1294.77 Q1450.19 1295.35 1452.71 1295.35 Q1457.11 1295.35 1459.4 1293.61 Q1461.71 1291.87 1461.71 1288.56 Q1461.71 1285.51 1459.56 1283.8 Q1457.43 1282.06 1453.61 1282.06 L1449.58 1282.06 L1449.58 1278.22 L1453.8 1278.22 Q1457.25 1278.22 1459.07 1276.85 Q1460.9 1275.46 1460.9 1272.87 Q1460.9 1270.21 1459 1268.8 Q1457.13 1267.36 1453.61 1267.36 Q1451.69 1267.36 1449.49 1267.78 Q1447.29 1268.19 1444.65 1269.07 L1444.65 1264.91 Q1447.31 1264.17 1449.63 1263.8 Q1451.97 1263.42 1454.03 1263.42 Q1459.35 1263.42 1462.45 1265.86 Q1465.56 1268.26 1465.56 1272.38 Q1465.56 1275.25 1463.91 1277.24 Q1462.27 1279.21 1459.24 1279.98 Z" fill="#000000" fill-rule="nonzero" fill-opacity="1" /><path clip-path="url(#clip170)" d="M1475.23 1292.73 L1480.12 1292.73 L1480.12 1298.61 L1475.23 1298.61 L1475.23 1292.73 Z" fill="#000000" fill-rule="nonzero" fill-opacity="1" /><path clip-path="url(#clip170)" d="M1490.35 1264.05 L1508.7 1264.05 L1508.7 1267.99 L1494.63 1267.99 L1494.63 1276.46 Q1495.65 1276.11 1496.67 1275.95 Q1497.68 1275.76 1498.7 1275.76 Q1504.49 1275.76 1507.87 1278.93 Q1511.25 1282.11 1511.25 1287.52 Q1511.25 1293.1 1507.78 1296.2 Q1504.31 1299.28 1497.99 1299.28 Q1495.81 1299.28 1493.54 1298.91 Q1491.3 1298.54 1488.89 1297.8 L1488.89 1293.1 Q1490.97 1294.23 1493.19 1294.79 Q1495.42 1295.35 1497.89 1295.35 Q1501.9 1295.35 1504.24 1293.24 Q1506.57 1291.13 1506.57 1287.52 Q1506.57 1283.91 1504.24 1281.8 Q1501.9 1279.7 1497.89 1279.7 Q1496.02 1279.7 1494.14 1280.11 Q1492.29 1280.53 1490.35 1281.41 L1490.35 1264.05 Z" fill="#000000" fill-rule="nonzero" fill-opacity="1" /><path clip-path="url(#clip170)" d="M1530.46 1267.13 Q1526.85 1267.13 1525.02 1270.69 Q1523.22 1274.24 1523.22 1281.36 Q1523.22 1288.47 1525.02 1292.04 Q1526.85 1295.58 1530.46 1295.58 Q1534.1 1295.58 1535.9 1292.04 Q1537.73 1288.47 1537.73 1281.36 Q1537.73 1274.24 1535.9 1270.69 Q1534.1 1267.13 1530.46 1267.13 M1530.46 1263.42 Q1536.27 1263.42 1539.33 1268.03 Q1542.41 1272.61 1542.41 1281.36 Q1542.41 1290.09 1539.33 1294.7 Q1536.27 1299.28 1530.46 1299.28 Q1524.65 1299.28 1521.57 1294.7 Q1518.52 1290.09 1518.52 1281.36 Q1518.52 1272.61 1521.57 1268.03 Q1524.65 1263.42 1530.46 1263.42 Z" fill="#000000" fill-rule="nonzero" fill-opacity="1" /><path clip-path="url(#clip170)" d="M1578.8 1273.15 L1568.22 1283.77 L1578.8 1294.35 L1576.04 1297.15 L1565.42 1286.53 L1554.79 1297.15 L1552.06 1294.35 L1562.62 1283.77 L1552.06 1273.15 L1554.79 1270.35 L1565.42 1280.97 L1576.04 1270.35 L1578.8 1273.15 Z" fill="#000000" fill-rule="nonzero" fill-opacity="1" /><path clip-path="url(#clip170)" d="M1591.16 1294.67 L1598.8 1294.67 L1598.8 1268.31 L1590.49 1269.98 L1590.49 1265.72 L1598.75 1264.05 L1603.43 1264.05 L1603.43 1294.67 L1611.06 1294.67 L1611.06 1298.61 L1591.16 1298.61 L1591.16 1294.67 Z" fill="#000000" fill-rule="nonzero" fill-opacity="1" /><path clip-path="url(#clip170)" d="M1630.51 1267.13 Q1626.9 1267.13 1625.07 1270.69 Q1623.26 1274.24 1623.26 1281.36 Q1623.26 1288.47 1625.07 1292.04 Q1626.9 1295.58 1630.51 1295.58 Q1634.14 1295.58 1635.95 1292.04 Q1637.78 1288.47 1637.78 1281.36 Q1637.78 1274.24 1635.95 1270.69 Q1634.14 1267.13 1630.51 1267.13 M1630.51 1263.42 Q1636.32 1263.42 1639.37 1268.03 Q1642.45 1272.61 1642.45 1281.36 Q1642.45 1290.09 1639.37 1294.7 Q1636.32 1299.28 1630.51 1299.28 Q1624.7 1299.28 1621.62 1294.7 Q1618.56 1290.09 1618.56 1281.36 Q1618.56 1272.61 1621.62 1268.03 Q1624.7 1263.42 1630.51 1263.42 Z" fill="#000000" fill-rule="nonzero" fill-opacity="1" /><path clip-path="url(#clip170)" d="M1655.13 1246.43 L1645.54 1261.42 L1655.13 1261.42 L1655.13 1246.43 M1654.13 1243.12 L1658.91 1243.12 L1658.91 1261.42 L1662.92 1261.42 L1662.92 1264.58 L1658.91 1264.58 L1658.91 1271.2 L1655.13 1271.2 L1655.13 1264.58 L1642.45 1264.58 L1642.45 1260.91 L1654.13 1243.12 Z" fill="#000000" fill-rule="nonzero" fill-opacity="1" /><path clip-path="url(#clip170)" d="M1749.44 1268.12 L1737.64 1286.57 L1749.44 1286.57 L1749.44 1268.12 M1748.22 1264.05 L1754.1 1264.05 L1754.1 1286.57 L1759.03 1286.57 L1759.03 1290.46 L1754.1 1290.46 L1754.1 1298.61 L1749.44 1298.61 L1749.44 1290.46 L1733.84 1290.46 L1733.84 1285.95 L1748.22 1264.05 Z" fill="#000000" fill-rule="nonzero" fill-opacity="1" /><path clip-path="url(#clip170)" d="M1766.76 1292.73 L1771.64 1292.73 L1771.64 1298.61 L1766.76 1298.61 L1766.76 1292.73 Z" fill="#000000" fill-rule="nonzero" fill-opacity="1" /><path clip-path="url(#clip170)" d="M1791.83 1267.13 Q1788.22 1267.13 1786.39 1270.69 Q1784.58 1274.24 1784.58 1281.36 Q1784.58 1288.47 1786.39 1292.04 Q1788.22 1295.58 1791.83 1295.58 Q1795.46 1295.58 1797.27 1292.04 Q1799.1 1288.47 1799.1 1281.36 Q1799.1 1274.24 1797.27 1270.69 Q1795.46 1267.13 1791.83 1267.13 M1791.83 1263.42 Q1797.64 1263.42 1800.69 1268.03 Q1803.77 1272.61 1803.77 1281.36 Q1803.77 1290.09 1800.69 1294.7 Q1797.64 1299.28 1791.83 1299.28 Q1786.02 1299.28 1782.94 1294.7 Q1779.88 1290.09 1779.88 1281.36 Q1779.88 1272.61 1782.94 1268.03 Q1786.02 1263.42 1791.83 1263.42 Z" fill="#000000" fill-rule="nonzero" fill-opacity="1" /><path clip-path="url(#clip170)" d="M1821.99 1267.13 Q1818.38 1267.13 1816.55 1270.69 Q1814.74 1274.24 1814.74 1281.36 Q1814.74 1288.47 1816.55 1292.04 Q1818.38 1295.58 1821.99 1295.58 Q1825.62 1295.58 1827.43 1292.04 Q1829.26 1288.47 1829.26 1281.36 Q1829.26 1274.24 1827.43 1270.69 Q1825.62 1267.13 1821.99 1267.13 M1821.99 1263.42 Q1827.8 1263.42 1830.85 1268.03 Q1833.93 1272.61 1833.93 1281.36 Q1833.93 1290.09 1830.85 1294.7 Q1827.8 1299.28 1821.99 1299.28 Q1816.18 1299.28 1813.1 1294.7 Q1810.04 1290.09 1810.04 1281.36 Q1810.04 1272.61 1813.1 1268.03 Q1816.18 1263.42 1821.99 1263.42 Z" fill="#000000" fill-rule="nonzero" fill-opacity="1" /><path clip-path="url(#clip170)" d="M1870.32 1273.15 L1859.74 1283.77 L1870.32 1294.35 L1867.57 1297.15 L1856.94 1286.53 L1846.32 1297.15 L1843.59 1294.35 L1854.14 1283.77 L1843.59 1273.15 L1846.32 1270.35 L1856.94 1280.97 L1867.57 1270.35 L1870.32 1273.15 Z" fill="#000000" fill-rule="nonzero" fill-opacity="1" /><path clip-path="url(#clip170)" d="M1882.68 1294.67 L1890.32 1294.67 L1890.32 1268.31 L1882.01 1269.98 L1882.01 1265.72 L1890.28 1264.05 L1894.95 1264.05 L1894.95 1294.67 L1902.59 1294.67 L1902.59 1298.61 L1882.68 1298.61 L1882.68 1294.67 Z" fill="#000000" fill-rule="nonzero" fill-opacity="1" /><path clip-path="url(#clip170)" d="M1922.04 1267.13 Q1918.42 1267.13 1916.6 1270.69 Q1914.79 1274.24 1914.79 1281.36 Q1914.79 1288.47 1916.6 1292.04 Q1918.42 1295.58 1922.04 1295.58 Q1925.67 1295.58 1927.47 1292.04 Q1929.3 1288.47 1929.3 1281.36 Q1929.3 1274.24 1927.47 1270.69 Q1925.67 1267.13 1922.04 1267.13 M1922.04 1263.42 Q1927.85 1263.42 1930.9 1268.03 Q1933.98 1272.61 1933.98 1281.36 Q1933.98 1290.09 1930.9 1294.7 Q1927.85 1299.28 1922.04 1299.28 Q1916.22 1299.28 1913.15 1294.7 Q1910.09 1290.09 1910.09 1281.36 Q1910.09 1272.61 1913.15 1268.03 Q1916.22 1263.42 1922.04 1263.42 Z" fill="#000000" fill-rule="nonzero" fill-opacity="1" /><path clip-path="url(#clip170)" d="M1946.66 1246.43 L1937.06 1261.42 L1946.66 1261.42 L1946.66 1246.43 M1945.66 1243.12 L1950.44 1243.12 L1950.44 1261.42 L1954.44 1261.42 L1954.44 1264.58 L1950.44 1264.58 L1950.44 1271.2 L1946.66 1271.2 L1946.66 1264.58 L1933.98 1264.58 L1933.98 1260.91 L1945.66 1243.12 Z" fill="#000000" fill-rule="nonzero" fill-opacity="1" /><polyline clip-path="url(#clip170)" style="stroke:#000000; stroke-linecap:round; stroke-linejoin:round; stroke-width:4; stroke-opacity:1; fill:none" points="169.135,1222.85 169.135,47.2441 "/>
<polyline clip-path="url(#clip170)" style="stroke:#000000; stroke-linecap:round; stroke-linejoin:round; stroke-width:4; stroke-opacity:1; fill:none" points="169.135,1222.85 188.032,1222.85 "/>
<polyline clip-path="url(#clip170)" style="stroke:#000000; stroke-linecap:round; stroke-linejoin:round; stroke-width:4; stroke-opacity:1; fill:none" points="169.135,963.051 188.032,963.051 "/>
<polyline clip-path="url(#clip170)" style="stroke:#000000; stroke-linecap:round; stroke-linejoin:round; stroke-width:4; stroke-opacity:1; fill:none" points="169.135,703.247 188.032,703.247 "/>
<polyline clip-path="url(#clip170)" style="stroke:#000000; stroke-linecap:round; stroke-linejoin:round; stroke-width:4; stroke-opacity:1; fill:none" points="169.135,443.444 188.032,443.444 "/>
<polyline clip-path="url(#clip170)" style="stroke:#000000; stroke-linecap:round; stroke-linejoin:round; stroke-width:4; stroke-opacity:1; fill:none" points="169.135,183.641 188.032,183.641 "/>
<path clip-path="url(#clip170)" d="M125.51 1208.65 Q121.899 1208.65 120.071 1212.22 Q118.265 1215.76 118.265 1222.89 Q118.265 1230 120.071 1233.56 Q121.899 1237.1 125.51 1237.1 Q129.145 1237.1 130.95 1233.56 Q132.779 1230 132.779 1222.89 Q132.779 1215.76 130.95 1212.22 Q129.145 1208.65 125.51 1208.65 M125.51 1204.95 Q131.321 1204.95 134.376 1209.56 Q137.455 1214.14 137.455 1222.89 Q137.455 1231.62 134.376 1236.22 Q131.321 1240.81 125.51 1240.81 Q119.7 1240.81 116.622 1236.22 Q113.566 1231.62 113.566 1222.89 Q113.566 1214.14 116.622 1209.56 Q119.7 1204.95 125.51 1204.95 Z" fill="#000000" fill-rule="nonzero" fill-opacity="1" /><path clip-path="url(#clip170)" d="M59.2145 976.395 L75.5339 976.395 L75.5339 980.331 L53.5895 980.331 L53.5895 976.395 Q56.2515 973.641 60.8349 969.011 Q65.4413 964.358 66.6219 963.016 Q68.8672 960.493 69.7468 958.757 Q70.6496 956.997 70.6496 955.308 Q70.6496 952.553 68.7052 950.817 Q66.7839 949.081 63.6821 949.081 Q61.483 949.081 59.0293 949.845 Q56.5988 950.609 53.821 952.159 L53.821 947.437 Q56.6451 946.303 59.0988 945.724 Q61.5524 945.146 63.5895 945.146 Q68.9598 945.146 72.1542 947.831 Q75.3487 950.516 75.3487 955.007 Q75.3487 957.136 74.5385 959.058 Q73.7515 960.956 71.645 963.548 Q71.0663 964.22 67.9645 967.437 Q64.8626 970.632 59.2145 976.395 Z" fill="#000000" fill-rule="nonzero" fill-opacity="1" /><path clip-path="url(#clip170)" d="M95.3486 948.849 Q91.7375 948.849 89.9088 952.414 Q88.1032 955.956 88.1032 963.085 Q88.1032 970.192 89.9088 973.757 Q91.7375 977.298 95.3486 977.298 Q98.9828 977.298 100.788 973.757 Q102.617 970.192 102.617 963.085 Q102.617 955.956 100.788 952.414 Q98.9828 948.849 95.3486 948.849 M95.3486 945.146 Q101.159 945.146 104.214 949.752 Q107.293 954.335 107.293 963.085 Q107.293 971.812 104.214 976.419 Q101.159 981.002 95.3486 981.002 Q89.5384 981.002 86.4597 976.419 Q83.4042 971.812 83.4042 963.085 Q83.4042 954.335 86.4597 949.752 Q89.5384 945.146 95.3486 945.146 Z" fill="#000000" fill-rule="nonzero" fill-opacity="1" /><path clip-path="url(#clip170)" d="M125.51 948.849 Q121.899 948.849 120.071 952.414 Q118.265 955.956 118.265 963.085 Q118.265 970.192 120.071 973.757 Q121.899 977.298 125.51 977.298 Q129.145 977.298 130.95 973.757 Q132.779 970.192 132.779 963.085 Q132.779 955.956 130.95 952.414 Q129.145 948.849 125.51 948.849 M125.51 945.146 Q131.321 945.146 134.376 949.752 Q137.455 954.335 137.455 963.085 Q137.455 971.812 134.376 976.419 Q131.321 981.002 125.51 981.002 Q119.7 981.002 116.622 976.419 Q113.566 971.812 113.566 963.085 Q113.566 954.335 116.622 949.752 Q119.7 945.146 125.51 945.146 Z" fill="#000000" fill-rule="nonzero" fill-opacity="1" /><path clip-path="url(#clip170)" d="M68.0339 690.041 L56.2284 708.49 L68.0339 708.49 L68.0339 690.041 M66.807 685.967 L72.6866 685.967 L72.6866 708.49 L77.6172 708.49 L77.6172 712.379 L72.6866 712.379 L72.6866 720.527 L68.0339 720.527 L68.0339 712.379 L52.4321 712.379 L52.4321 707.865 L66.807 685.967 Z" fill="#000000" fill-rule="nonzero" fill-opacity="1" /><path clip-path="url(#clip170)" d="M95.3486 689.046 Q91.7375 689.046 89.9088 692.611 Q88.1032 696.152 88.1032 703.282 Q88.1032 710.389 89.9088 713.953 Q91.7375 717.495 95.3486 717.495 Q98.9828 717.495 100.788 713.953 Q102.617 710.389 102.617 703.282 Q102.617 696.152 100.788 692.611 Q98.9828 689.046 95.3486 689.046 M95.3486 685.342 Q101.159 685.342 104.214 689.949 Q107.293 694.532 107.293 703.282 Q107.293 712.009 104.214 716.615 Q101.159 721.199 95.3486 721.199 Q89.5384 721.199 86.4597 716.615 Q83.4042 712.009 83.4042 703.282 Q83.4042 694.532 86.4597 689.949 Q89.5384 685.342 95.3486 685.342 Z" fill="#000000" fill-rule="nonzero" fill-opacity="1" /><path clip-path="url(#clip170)" d="M125.51 689.046 Q121.899 689.046 120.071 692.611 Q118.265 696.152 118.265 703.282 Q118.265 710.389 120.071 713.953 Q121.899 717.495 125.51 717.495 Q129.145 717.495 130.95 713.953 Q132.779 710.389 132.779 703.282 Q132.779 696.152 130.95 692.611 Q129.145 689.046 125.51 689.046 M125.51 685.342 Q131.321 685.342 134.376 689.949 Q137.455 694.532 137.455 703.282 Q137.455 712.009 134.376 716.615 Q131.321 721.199 125.51 721.199 Q119.7 721.199 116.622 716.615 Q113.566 712.009 113.566 703.282 Q113.566 694.532 116.622 689.949 Q119.7 685.342 125.51 685.342 Z" fill="#000000" fill-rule="nonzero" fill-opacity="1" /><path clip-path="url(#clip170)" d="M65.7654 441.581 Q62.6173 441.581 60.7654 443.733 Q58.9367 445.886 58.9367 449.636 Q58.9367 453.363 60.7654 455.539 Q62.6173 457.692 65.7654 457.692 Q68.9135 457.692 70.7422 455.539 Q72.5941 453.363 72.5941 449.636 Q72.5941 445.886 70.7422 443.733 Q68.9135 441.581 65.7654 441.581 M75.0477 426.928 L75.0477 431.187 Q73.2885 430.354 71.4829 429.914 Q69.7006 429.474 67.9413 429.474 Q63.3117 429.474 60.858 432.599 Q58.4275 435.724 58.0802 442.044 Q59.446 440.03 61.5062 438.965 Q63.5663 437.877 66.0432 437.877 Q71.2515 437.877 74.2607 441.048 Q77.2931 444.196 77.2931 449.636 Q77.2931 454.96 74.145 458.178 Q70.9968 461.395 65.7654 461.395 Q59.77 461.395 56.5988 456.812 Q53.4275 452.206 53.4275 443.479 Q53.4275 435.284 57.3164 430.423 Q61.2052 425.539 67.7561 425.539 Q69.5154 425.539 71.2978 425.886 Q73.1033 426.234 75.0477 426.928 Z" fill="#000000" fill-rule="nonzero" fill-opacity="1" /><path clip-path="url(#clip170)" d="M95.3486 429.243 Q91.7375 429.243 89.9088 432.808 Q88.1032 436.349 88.1032 443.479 Q88.1032 450.585 89.9088 454.15 Q91.7375 457.692 95.3486 457.692 Q98.9828 457.692 100.788 454.15 Q102.617 450.585 102.617 443.479 Q102.617 436.349 100.788 432.808 Q98.9828 429.243 95.3486 429.243 M95.3486 425.539 Q101.159 425.539 104.214 430.146 Q107.293 434.729 107.293 443.479 Q107.293 452.206 104.214 456.812 Q101.159 461.395 95.3486 461.395 Q89.5384 461.395 86.4597 456.812 Q83.4042 452.206 83.4042 443.479 Q83.4042 434.729 86.4597 430.146 Q89.5384 425.539 95.3486 425.539 Z" fill="#000000" fill-rule="nonzero" fill-opacity="1" /><path clip-path="url(#clip170)" d="M125.51 429.243 Q121.899 429.243 120.071 432.808 Q118.265 436.349 118.265 443.479 Q118.265 450.585 120.071 454.15 Q121.899 457.692 125.51 457.692 Q129.145 457.692 130.95 454.15 Q132.779 450.585 132.779 443.479 Q132.779 436.349 130.95 432.808 Q129.145 429.243 125.51 429.243 M125.51 425.539 Q131.321 425.539 134.376 430.146 Q137.455 434.729 137.455 443.479 Q137.455 452.206 134.376 456.812 Q131.321 461.395 125.51 461.395 Q119.7 461.395 116.622 456.812 Q113.566 452.206 113.566 443.479 Q113.566 434.729 116.622 430.146 Q119.7 425.539 125.51 425.539 Z" fill="#000000" fill-rule="nonzero" fill-opacity="1" /><path clip-path="url(#clip170)" d="M65.1867 184.509 Q61.8534 184.509 59.9321 186.291 Q58.0339 188.074 58.0339 191.199 Q58.0339 194.324 59.9321 196.106 Q61.8534 197.888 65.1867 197.888 Q68.52 197.888 70.4413 196.106 Q72.3626 194.3 72.3626 191.199 Q72.3626 188.074 70.4413 186.291 Q68.5432 184.509 65.1867 184.509 M60.5108 182.518 Q57.5015 181.777 55.8117 179.717 Q54.1451 177.657 54.1451 174.694 Q54.1451 170.551 57.0849 168.143 Q60.0478 165.736 65.1867 165.736 Q70.3487 165.736 73.2885 168.143 Q76.2283 170.551 76.2283 174.694 Q76.2283 177.657 74.5385 179.717 Q72.8718 181.777 69.8857 182.518 Q73.2653 183.305 75.1403 185.597 Q77.0385 187.888 77.0385 191.199 Q77.0385 196.222 73.9598 198.907 Q70.9042 201.592 65.1867 201.592 Q59.4691 201.592 56.3904 198.907 Q53.3349 196.222 53.3349 191.199 Q53.3349 187.888 55.233 185.597 Q57.1312 183.305 60.5108 182.518 M58.7978 175.134 Q58.7978 177.819 60.4645 179.324 Q62.1543 180.828 65.1867 180.828 Q68.1959 180.828 69.8857 179.324 Q71.5987 177.819 71.5987 175.134 Q71.5987 172.449 69.8857 170.944 Q68.1959 169.44 65.1867 169.44 Q62.1543 169.44 60.4645 170.944 Q58.7978 172.449 58.7978 175.134 Z" fill="#000000" fill-rule="nonzero" fill-opacity="1" /><path clip-path="url(#clip170)" d="M95.3486 169.44 Q91.7375 169.44 89.9088 173.004 Q88.1032 176.546 88.1032 183.676 Q88.1032 190.782 89.9088 194.347 Q91.7375 197.888 95.3486 197.888 Q98.9828 197.888 100.788 194.347 Q102.617 190.782 102.617 183.676 Q102.617 176.546 100.788 173.004 Q98.9828 169.44 95.3486 169.44 M95.3486 165.736 Q101.159 165.736 104.214 170.342 Q107.293 174.926 107.293 183.676 Q107.293 192.402 104.214 197.009 Q101.159 201.592 95.3486 201.592 Q89.5384 201.592 86.4597 197.009 Q83.4042 192.402 83.4042 183.676 Q83.4042 174.926 86.4597 170.342 Q89.5384 165.736 95.3486 165.736 Z" fill="#000000" fill-rule="nonzero" fill-opacity="1" /><path clip-path="url(#clip170)" d="M125.51 169.44 Q121.899 169.44 120.071 173.004 Q118.265 176.546 118.265 183.676 Q118.265 190.782 120.071 194.347 Q121.899 197.888 125.51 197.888 Q129.145 197.888 130.95 194.347 Q132.779 190.782 132.779 183.676 Q132.779 176.546 130.95 173.004 Q129.145 169.44 125.51 169.44 M125.51 165.736 Q131.321 165.736 134.376 170.342 Q137.455 174.926 137.455 183.676 Q137.455 192.402 134.376 197.009 Q131.321 201.592 125.51 201.592 Q119.7 201.592 116.622 197.009 Q113.566 192.402 113.566 183.676 Q113.566 174.926 116.622 170.342 Q119.7 165.736 125.51 165.736 Z" fill="#000000" fill-rule="nonzero" fill-opacity="1" /><path clip-path="url(#clip172)" d="M273.397 1221.55 L273.397 1222.85 L331.573 1222.85 L331.573 1221.55 L273.397 1221.55 L273.397 1221.55  Z" fill="#009af9" fill-rule="evenodd" fill-opacity="1"/>
<polyline clip-path="url(#clip172)" style="stroke:#000000; stroke-linecap:round; stroke-linejoin:round; stroke-width:4; stroke-opacity:1; fill:none" points="273.397,1221.55 273.397,1222.85 331.573,1222.85 331.573,1221.55 273.397,1221.55 "/>
<path clip-path="url(#clip172)" d="M331.573 1220.26 L331.573 1222.85 L389.749 1222.85 L389.749 1220.26 L331.573 1220.26 L331.573 1220.26  Z" fill="#009af9" fill-rule="evenodd" fill-opacity="1"/>
<polyline clip-path="url(#clip172)" style="stroke:#000000; stroke-linecap:round; stroke-linejoin:round; stroke-width:4; stroke-opacity:1; fill:none" points="331.573,1220.26 331.573,1222.85 389.749,1222.85 389.749,1220.26 331.573,1220.26 "/>
<path clip-path="url(#clip172)" d="M389.749 1221.55 L389.749 1222.85 L447.925 1222.85 L447.925 1221.55 L389.749 1221.55 L389.749 1221.55  Z" fill="#009af9" fill-rule="evenodd" fill-opacity="1"/>
<polyline clip-path="url(#clip172)" style="stroke:#000000; stroke-linecap:round; stroke-linejoin:round; stroke-width:4; stroke-opacity:1; fill:none" points="389.749,1221.55 389.749,1222.85 447.925,1222.85 447.925,1221.55 389.749,1221.55 "/>
<path clip-path="url(#clip172)" d="M447.925 1218.96 L447.925 1222.85 L506.1 1222.85 L506.1 1218.96 L447.925 1218.96 L447.925 1218.96  Z" fill="#009af9" fill-rule="evenodd" fill-opacity="1"/>
<polyline clip-path="url(#clip172)" style="stroke:#000000; stroke-linecap:round; stroke-linejoin:round; stroke-width:4; stroke-opacity:1; fill:none" points="447.925,1218.96 447.925,1222.85 506.1,1222.85 506.1,1218.96 447.925,1218.96 "/>
<path clip-path="url(#clip172)" d="M506.1 1213.76 L506.1 1222.85 L564.276 1222.85 L564.276 1213.76 L506.1 1213.76 L506.1 1213.76  Z" fill="#009af9" fill-rule="evenodd" fill-opacity="1"/>
<polyline clip-path="url(#clip172)" style="stroke:#000000; stroke-linecap:round; stroke-linejoin:round; stroke-width:4; stroke-opacity:1; fill:none" points="506.1,1213.76 506.1,1222.85 564.276,1222.85 564.276,1213.76 506.1,1213.76 "/>
<path clip-path="url(#clip172)" d="M564.276 1199.47 L564.276 1222.85 L622.452 1222.85 L622.452 1199.47 L564.276 1199.47 L564.276 1199.47  Z" fill="#009af9" fill-rule="evenodd" fill-opacity="1"/>
<polyline clip-path="url(#clip172)" style="stroke:#000000; stroke-linecap:round; stroke-linejoin:round; stroke-width:4; stroke-opacity:1; fill:none" points="564.276,1199.47 564.276,1222.85 622.452,1222.85 622.452,1199.47 564.276,1199.47 "/>
<path clip-path="url(#clip172)" d="M622.452 1176.09 L622.452 1222.85 L680.627 1222.85 L680.627 1176.09 L622.452 1176.09 L622.452 1176.09  Z" fill="#009af9" fill-rule="evenodd" fill-opacity="1"/>
<polyline clip-path="url(#clip172)" style="stroke:#000000; stroke-linecap:round; stroke-linejoin:round; stroke-width:4; stroke-opacity:1; fill:none" points="622.452,1176.09 622.452,1222.85 680.627,1222.85 680.627,1176.09 622.452,1176.09 "/>
<path clip-path="url(#clip172)" d="M680.627 1126.73 L680.627 1222.85 L738.803 1222.85 L738.803 1126.73 L680.627 1126.73 L680.627 1126.73  Z" fill="#009af9" fill-rule="evenodd" fill-opacity="1"/>
<polyline clip-path="url(#clip172)" style="stroke:#000000; stroke-linecap:round; stroke-linejoin:round; stroke-width:4; stroke-opacity:1; fill:none" points="680.627,1126.73 680.627,1222.85 738.803,1222.85 738.803,1126.73 680.627,1126.73 "/>
<path clip-path="url(#clip172)" d="M738.803 1077.36 L738.803 1222.85 L796.979 1222.85 L796.979 1077.36 L738.803 1077.36 L738.803 1077.36  Z" fill="#009af9" fill-rule="evenodd" fill-opacity="1"/>
<polyline clip-path="url(#clip172)" style="stroke:#000000; stroke-linecap:round; stroke-linejoin:round; stroke-width:4; stroke-opacity:1; fill:none" points="738.803,1077.36 738.803,1222.85 796.979,1222.85 796.979,1077.36 738.803,1077.36 "/>
<path clip-path="url(#clip172)" d="M796.979 1030.6 L796.979 1222.85 L855.155 1222.85 L855.155 1030.6 L796.979 1030.6 L796.979 1030.6  Z" fill="#009af9" fill-rule="evenodd" fill-opacity="1"/>
<polyline clip-path="url(#clip172)" style="stroke:#000000; stroke-linecap:round; stroke-linejoin:round; stroke-width:4; stroke-opacity:1; fill:none" points="796.979,1030.6 796.979,1222.85 855.155,1222.85 855.155,1030.6 796.979,1030.6 "/>
<path clip-path="url(#clip172)" d="M855.155 935.771 L855.155 1222.85 L913.33 1222.85 L913.33 935.771 L855.155 935.771 L855.155 935.771  Z" fill="#009af9" fill-rule="evenodd" fill-opacity="1"/>
<polyline clip-path="url(#clip172)" style="stroke:#000000; stroke-linecap:round; stroke-linejoin:round; stroke-width:4; stroke-opacity:1; fill:none" points="855.155,935.771 855.155,1222.85 913.33,1222.85 913.33,935.771 855.155,935.771 "/>
<path clip-path="url(#clip172)" d="M913.33 774.693 L913.33 1222.85 L971.506 1222.85 L971.506 774.693 L913.33 774.693 L913.33 774.693  Z" fill="#009af9" fill-rule="evenodd" fill-opacity="1"/>
<polyline clip-path="url(#clip172)" style="stroke:#000000; stroke-linecap:round; stroke-linejoin:round; stroke-width:4; stroke-opacity:1; fill:none" points="913.33,774.693 913.33,1222.85 971.506,1222.85 971.506,774.693 913.33,774.693 "/>
<path clip-path="url(#clip172)" d="M971.506 685.061 L971.506 1222.85 L1029.68 1222.85 L1029.68 685.061 L971.506 685.061 L971.506 685.061  Z" fill="#009af9" fill-rule="evenodd" fill-opacity="1"/>
<polyline clip-path="url(#clip172)" style="stroke:#000000; stroke-linecap:round; stroke-linejoin:round; stroke-width:4; stroke-opacity:1; fill:none" points="971.506,685.061 971.506,1222.85 1029.68,1222.85 1029.68,685.061 971.506,685.061 "/>
<path clip-path="url(#clip172)" d="M1029.68 533.076 L1029.68 1222.85 L1087.86 1222.85 L1087.86 533.076 L1029.68 533.076 L1029.68 533.076  Z" fill="#009af9" fill-rule="evenodd" fill-opacity="1"/>
<polyline clip-path="url(#clip172)" style="stroke:#000000; stroke-linecap:round; stroke-linejoin:round; stroke-width:4; stroke-opacity:1; fill:none" points="1029.68,533.076 1029.68,1222.85 1087.86,1222.85 1087.86,533.076 1029.68,533.076 "/>
<path clip-path="url(#clip172)" d="M1087.86 366.802 L1087.86 1222.85 L1146.03 1222.85 L1146.03 366.802 L1087.86 366.802 L1087.86 366.802  Z" fill="#009af9" fill-rule="evenodd" fill-opacity="1"/>
<polyline clip-path="url(#clip172)" style="stroke:#000000; stroke-linecap:round; stroke-linejoin:round; stroke-width:4; stroke-opacity:1; fill:none" points="1087.86,366.802 1087.86,1222.85 1146.03,1222.85 1146.03,366.802 1087.86,366.802 "/>
<path clip-path="url(#clip172)" d="M1146.03 208.322 L1146.03 1222.85 L1204.21 1222.85 L1204.21 208.322 L1146.03 208.322 L1146.03 208.322  Z" fill="#009af9" fill-rule="evenodd" fill-opacity="1"/>
<polyline clip-path="url(#clip172)" style="stroke:#000000; stroke-linecap:round; stroke-linejoin:round; stroke-width:4; stroke-opacity:1; fill:none" points="1146.03,208.322 1146.03,1222.85 1204.21,1222.85 1204.21,208.322 1146.03,208.322 "/>
<path clip-path="url(#clip172)" d="M1204.21 165.455 L1204.21 1222.85 L1262.38 1222.85 L1262.38 165.455 L1204.21 165.455 L1204.21 165.455  Z" fill="#009af9" fill-rule="evenodd" fill-opacity="1"/>
<polyline clip-path="url(#clip172)" style="stroke:#000000; stroke-linecap:round; stroke-linejoin:round; stroke-width:4; stroke-opacity:1; fill:none" points="1204.21,165.455 1204.21,1222.85 1262.38,1222.85 1262.38,165.455 1204.21,165.455 "/>
<path clip-path="url(#clip172)" d="M1262.38 97.9057 L1262.38 1222.85 L1320.56 1222.85 L1320.56 97.9057 L1262.38 97.9057 L1262.38 97.9057  Z" fill="#009af9" fill-rule="evenodd" fill-opacity="1"/>
<polyline clip-path="url(#clip172)" style="stroke:#000000; stroke-linecap:round; stroke-linejoin:round; stroke-width:4; stroke-opacity:1; fill:none" points="1262.38,97.9057 1262.38,1222.85 1320.56,1222.85 1320.56,97.9057 1262.38,97.9057 "/>
<path clip-path="url(#clip172)" d="M1320.56 47.2441 L1320.56 1222.85 L1378.74 1222.85 L1378.74 47.2441 L1320.56 47.2441 L1320.56 47.2441  Z" fill="#009af9" fill-rule="evenodd" fill-opacity="1"/>
<polyline clip-path="url(#clip172)" style="stroke:#000000; stroke-linecap:round; stroke-linejoin:round; stroke-width:4; stroke-opacity:1; fill:none" points="1320.56,47.2441 1320.56,1222.85 1378.74,1222.85 1378.74,47.2441 1320.56,47.2441 "/>
<path clip-path="url(#clip172)" d="M1378.74 119.989 L1378.74 1222.85 L1436.91 1222.85 L1436.91 119.989 L1378.74 119.989 L1378.74 119.989  Z" fill="#009af9" fill-rule="evenodd" fill-opacity="1"/>
<polyline clip-path="url(#clip172)" style="stroke:#000000; stroke-linecap:round; stroke-linejoin:round; stroke-width:4; stroke-opacity:1; fill:none" points="1378.74,119.989 1378.74,1222.85 1436.91,1222.85 1436.91,119.989 1378.74,119.989 "/>
<path clip-path="url(#clip172)" d="M1436.91 208.322 L1436.91 1222.85 L1495.09 1222.85 L1495.09 208.322 L1436.91 208.322 L1436.91 208.322  Z" fill="#009af9" fill-rule="evenodd" fill-opacity="1"/>
<polyline clip-path="url(#clip172)" style="stroke:#000000; stroke-linecap:round; stroke-linejoin:round; stroke-width:4; stroke-opacity:1; fill:none" points="1436.91,208.322 1436.91,1222.85 1495.09,1222.85 1495.09,208.322 1436.91,208.322 "/>
<path clip-path="url(#clip172)" d="M1495.09 452.537 L1495.09 1222.85 L1553.26 1222.85 L1553.26 452.537 L1495.09 452.537 L1495.09 452.537  Z" fill="#009af9" fill-rule="evenodd" fill-opacity="1"/>
<polyline clip-path="url(#clip172)" style="stroke:#000000; stroke-linecap:round; stroke-linejoin:round; stroke-width:4; stroke-opacity:1; fill:none" points="1495.09,452.537 1495.09,1222.85 1553.26,1222.85 1553.26,452.537 1495.09,452.537 "/>
<path clip-path="url(#clip172)" d="M1553.26 535.674 L1553.26 1222.85 L1611.44 1222.85 L1611.44 535.674 L1553.26 535.674 L1553.26 535.674  Z" fill="#009af9" fill-rule="evenodd" fill-opacity="1"/>
<polyline clip-path="url(#clip172)" style="stroke:#000000; stroke-linecap:round; stroke-linejoin:round; stroke-width:4; stroke-opacity:1; fill:none" points="1553.26,535.674 1553.26,1222.85 1611.44,1222.85 1611.44,535.674 1553.26,535.674 "/>
<path clip-path="url(#clip172)" d="M1611.44 622.708 L1611.44 1222.85 L1669.61 1222.85 L1669.61 622.708 L1611.44 622.708 L1611.44 622.708  Z" fill="#009af9" fill-rule="evenodd" fill-opacity="1"/>
<polyline clip-path="url(#clip172)" style="stroke:#000000; stroke-linecap:round; stroke-linejoin:round; stroke-width:4; stroke-opacity:1; fill:none" points="1611.44,622.708 1611.44,1222.85 1669.61,1222.85 1669.61,622.708 1611.44,622.708 "/>
<path clip-path="url(#clip172)" d="M1669.61 829.252 L1669.61 1222.85 L1727.79 1222.85 L1727.79 829.252 L1669.61 829.252 L1669.61 829.252  Z" fill="#009af9" fill-rule="evenodd" fill-opacity="1"/>
<polyline clip-path="url(#clip172)" style="stroke:#000000; stroke-linecap:round; stroke-linejoin:round; stroke-width:4; stroke-opacity:1; fill:none" points="1669.61,829.252 1669.61,1222.85 1727.79,1222.85 1727.79,829.252 1669.61,829.252 "/>
<path clip-path="url(#clip172)" d="M1727.79 926.678 L1727.79 1222.85 L1785.97 1222.85 L1785.97 926.678 L1727.79 926.678 L1727.79 926.678  Z" fill="#009af9" fill-rule="evenodd" fill-opacity="1"/>
<polyline clip-path="url(#clip172)" style="stroke:#000000; stroke-linecap:round; stroke-linejoin:round; stroke-width:4; stroke-opacity:1; fill:none" points="1727.79,926.678 1727.79,1222.85 1785.97,1222.85 1785.97,926.678 1727.79,926.678 "/>
<path clip-path="url(#clip172)" d="M1785.97 1012.41 L1785.97 1222.85 L1844.14 1222.85 L1844.14 1012.41 L1785.97 1012.41 L1785.97 1012.41  Z" fill="#009af9" fill-rule="evenodd" fill-opacity="1"/>
<polyline clip-path="url(#clip172)" style="stroke:#000000; stroke-linecap:round; stroke-linejoin:round; stroke-width:4; stroke-opacity:1; fill:none" points="1785.97,1012.41 1785.97,1222.85 1844.14,1222.85 1844.14,1012.41 1785.97,1012.41 "/>
<path clip-path="url(#clip172)" d="M1844.14 1087.76 L1844.14 1222.85 L1902.32 1222.85 L1902.32 1087.76 L1844.14 1087.76 L1844.14 1087.76  Z" fill="#009af9" fill-rule="evenodd" fill-opacity="1"/>
<polyline clip-path="url(#clip172)" style="stroke:#000000; stroke-linecap:round; stroke-linejoin:round; stroke-width:4; stroke-opacity:1; fill:none" points="1844.14,1087.76 1844.14,1222.85 1902.32,1222.85 1902.32,1087.76 1844.14,1087.76 "/>
<path clip-path="url(#clip172)" d="M1902.32 1156.6 L1902.32 1222.85 L1960.49 1222.85 L1960.49 1156.6 L1902.32 1156.6 L1902.32 1156.6  Z" fill="#009af9" fill-rule="evenodd" fill-opacity="1"/>
<polyline clip-path="url(#clip172)" style="stroke:#000000; stroke-linecap:round; stroke-linejoin:round; stroke-width:4; stroke-opacity:1; fill:none" points="1902.32,1156.6 1902.32,1222.85 1960.49,1222.85 1960.49,1156.6 1902.32,1156.6 "/>
<circle clip-path="url(#clip172)" style="fill:#009af9; stroke:none; fill-opacity:0" cx="302.485" cy="1221.55" r="2"/>
<circle clip-path="url(#clip172)" style="fill:#009af9; stroke:none; fill-opacity:0" cx="360.661" cy="1220.26" r="2"/>
<circle clip-path="url(#clip172)" style="fill:#009af9; stroke:none; fill-opacity:0" cx="418.837" cy="1221.55" r="2"/>
<circle clip-path="url(#clip172)" style="fill:#009af9; stroke:none; fill-opacity:0" cx="477.012" cy="1218.96" r="2"/>
<circle clip-path="url(#clip172)" style="fill:#009af9; stroke:none; fill-opacity:0" cx="535.188" cy="1213.76" r="2"/>
<circle clip-path="url(#clip172)" style="fill:#009af9; stroke:none; fill-opacity:0" cx="593.364" cy="1199.47" r="2"/>
<circle clip-path="url(#clip172)" style="fill:#009af9; stroke:none; fill-opacity:0" cx="651.54" cy="1176.09" r="2"/>
<circle clip-path="url(#clip172)" style="fill:#009af9; stroke:none; fill-opacity:0" cx="709.715" cy="1126.73" r="2"/>
<circle clip-path="url(#clip172)" style="fill:#009af9; stroke:none; fill-opacity:0" cx="767.891" cy="1077.36" r="2"/>
<circle clip-path="url(#clip172)" style="fill:#009af9; stroke:none; fill-opacity:0" cx="826.067" cy="1030.6" r="2"/>
<circle clip-path="url(#clip172)" style="fill:#009af9; stroke:none; fill-opacity:0" cx="884.242" cy="935.771" r="2"/>
<circle clip-path="url(#clip172)" style="fill:#009af9; stroke:none; fill-opacity:0" cx="942.418" cy="774.693" r="2"/>
<circle clip-path="url(#clip172)" style="fill:#009af9; stroke:none; fill-opacity:0" cx="1000.59" cy="685.061" r="2"/>
<circle clip-path="url(#clip172)" style="fill:#009af9; stroke:none; fill-opacity:0" cx="1058.77" cy="533.076" r="2"/>
<circle clip-path="url(#clip172)" style="fill:#009af9; stroke:none; fill-opacity:0" cx="1116.95" cy="366.802" r="2"/>
<circle clip-path="url(#clip172)" style="fill:#009af9; stroke:none; fill-opacity:0" cx="1175.12" cy="208.322" r="2"/>
<circle clip-path="url(#clip172)" style="fill:#009af9; stroke:none; fill-opacity:0" cx="1233.3" cy="165.455" r="2"/>
<circle clip-path="url(#clip172)" style="fill:#009af9; stroke:none; fill-opacity:0" cx="1291.47" cy="97.9057" r="2"/>
<circle clip-path="url(#clip172)" style="fill:#009af9; stroke:none; fill-opacity:0" cx="1349.65" cy="47.2441" r="2"/>
<circle clip-path="url(#clip172)" style="fill:#009af9; stroke:none; fill-opacity:0" cx="1407.82" cy="119.989" r="2"/>
<circle clip-path="url(#clip172)" style="fill:#009af9; stroke:none; fill-opacity:0" cx="1466" cy="208.322" r="2"/>
<circle clip-path="url(#clip172)" style="fill:#009af9; stroke:none; fill-opacity:0" cx="1524.18" cy="452.537" r="2"/>
<circle clip-path="url(#clip172)" style="fill:#009af9; stroke:none; fill-opacity:0" cx="1582.35" cy="535.674" r="2"/>
<circle clip-path="url(#clip172)" style="fill:#009af9; stroke:none; fill-opacity:0" cx="1640.53" cy="622.708" r="2"/>
<circle clip-path="url(#clip172)" style="fill:#009af9; stroke:none; fill-opacity:0" cx="1698.7" cy="829.252" r="2"/>
<circle clip-path="url(#clip172)" style="fill:#009af9; stroke:none; fill-opacity:0" cx="1756.88" cy="926.678" r="2"/>
<circle clip-path="url(#clip172)" style="fill:#009af9; stroke:none; fill-opacity:0" cx="1815.05" cy="1012.41" r="2"/>
<circle clip-path="url(#clip172)" style="fill:#009af9; stroke:none; fill-opacity:0" cx="1873.23" cy="1087.76" r="2"/>
<circle clip-path="url(#clip172)" style="fill:#009af9; stroke:none; fill-opacity:0" cx="1931.41" cy="1156.6" r="2"/>
<path clip-path="url(#clip170)" d="M1759.58 190.111 L2001.57 190.111 L2001.57 86.4311 L1759.58 86.4311  Z" fill="#ffffff" fill-rule="evenodd" fill-opacity="1"/>
<polyline clip-path="url(#clip170)" style="stroke:#000000; stroke-linecap:round; stroke-linejoin:round; stroke-width:4; stroke-opacity:1; fill:none" points="1759.58,190.111 2001.57,190.111 2001.57,86.4311 1759.58,86.4311 1759.58,190.111 "/>
<path clip-path="url(#clip170)" d="M1780.64 159.007 L1907.01 159.007 L1907.01 117.535 L1780.64 117.535 L1780.64 159.007  Z" fill="#009af9" fill-rule="evenodd" fill-opacity="1"/>
<polyline clip-path="url(#clip170)" style="stroke:#000000; stroke-linecap:round; stroke-linejoin:round; stroke-width:4; stroke-opacity:1; fill:none" points="1780.64,159.007 1907.01,159.007 1907.01,117.535 1780.64,117.535 1780.64,159.007 "/>
<path clip-path="url(#clip170)" d="M1941.92 157.958 Q1940.11 162.588 1938.4 164 Q1936.69 165.412 1933.82 165.412 L1930.41 165.412 L1930.41 161.847 L1932.91 161.847 Q1934.67 161.847 1935.65 161.014 Q1936.62 160.181 1937.8 157.079 L1938.56 155.134 L1928.08 129.625 L1932.59 129.625 L1940.69 149.903 L1948.79 129.625 L1953.31 129.625 L1941.92 157.958 Z" fill="#000000" fill-rule="nonzero" fill-opacity="1" /><path clip-path="url(#clip170)" d="M1960.6 151.616 L1968.24 151.616 L1968.24 125.25 L1959.93 126.917 L1959.93 122.658 L1968.19 120.991 L1972.87 120.991 L1972.87 151.616 L1980.51 151.616 L1980.51 155.551 L1960.6 155.551 L1960.6 151.616 Z" fill="#000000" fill-rule="nonzero" fill-opacity="1" /></svg>
